HIERARCHY
ROOT Hips
{
	OFFSET 0.000000 0.000000 0.000000
	CHANNELS 6 Xposition Yposition Zposition Xrotation Zrotation Yrotation
	JOINT Spine
	{
		OFFSET 0.000000 0.000006 -11.335082
		CHANNELS 6 Xposition Yposition Zposition Xrotation Zrotation Yrotation
		JOINT Spine1
		{
			OFFSET 0.000000 0.000013 -25.648983
			CHANNELS 6 Xposition Yposition Zposition Xrotation Zrotation Yrotation
			JOINT Neck
			{
				OFFSET 0.000000 0.000014 -28.413631
				CHANNELS 6 Xposition Yposition Zposition Xrotation Zrotation Yrotation
				JOINT Head
				{
					OFFSET 0.000000 2.764664 -21.426069
					CHANNELS 6 Xposition Yposition Zposition Xrotation Zrotation Yrotation
					End Site
					{
						OFFSET 0.000000 0.000013 -27.646542
					}
				}
			}
			JOINT LeftShoulder
			{
				OFFSET 5.517776 -0.602992 -23.183556
				CHANNELS 6 Xposition Yposition Zposition Xrotation Zrotation Yrotation
				JOINT LeftArm
				{
					OFFSET 15.992190 0.000000 0.000000
					CHANNELS 6 Xposition Yposition Zposition Xrotation Zrotation Yrotation
					JOINT LeftForeArm
					{
						OFFSET 41.472099 0.000000 0.000000
						CHANNELS 6 Xposition Yposition Zposition Xrotation Zrotation Yrotation
						JOINT LeftHand
						{
							OFFSET 37.091511 0.000000 0.000000
							CHANNELS 6 Xposition Yposition Zposition Xrotation Zrotation Yrotation
							End Site
							{
								OFFSET 20.734911 0.000000 0.000000
							}
						}
					}
				}
			}
			JOINT RightShoulder
			{
				OFFSET -5.529053 -0.602992 -23.183556
				CHANNELS 6 Xposition Yposition Zposition Xrotation Zrotation Yrotation
				JOINT RightArm
				{
					OFFSET -15.992190 0.000000 0.000000
					CHANNELS 6 Xposition Yposition Zposition Xrotation Zrotation Yrotation
					JOINT RightForeArm
					{
						OFFSET -41.472099 0.000000 0.000000
						CHANNELS 6 Xposition Yposition Zposition Xrotation Zrotation Yrotation
						JOINT RightHand
						{
							OFFSET -37.091511 0.000000 0.000000
							CHANNELS 6 Xposition Yposition Zposition Xrotation Zrotation Yrotation
							End Site
							{
								OFFSET -20.734911 0.000000 0.000000
							}
						}
					}
				}
			}
		}
	}
	JOINT LeftUpLeg
	{
		OFFSET 13.823269 0.000000 0.000000
		CHANNELS 6 Xposition Yposition Zposition Xrotation Zrotation Yrotation
		JOINT LeftLeg
		{
			OFFSET 0.000000 -0.000035 71.945976
			CHANNELS 6 Xposition Yposition Zposition Xrotation Zrotation Yrotation
			JOINT LeftFoot
			{
				OFFSET 0.000000 -0.000028 57.796143
				CHANNELS 6 Xposition Yposition Zposition Xrotation Zrotation Yrotation
				JOINT LeftToeBase
				{
					OFFSET 0.000000 20.734900 8.985126
					CHANNELS 6 Xposition Yposition Zposition Xrotation Zrotation Yrotation
					End Site
					{
						OFFSET 0.000000 5.529309 0.000000
					}
				}
			}
		}
	}
	JOINT RightUpLeg
	{
		OFFSET -13.823269 0.000000 0.000000
		CHANNELS 6 Xposition Yposition Zposition Xrotation Zrotation Yrotation
		JOINT RightLeg
		{
			OFFSET 0.000000 -0.000035 71.945976
			CHANNELS 6 Xposition Yposition Zposition Xrotation Zrotation Yrotation
			JOINT RightFoot
			{
				OFFSET 0.000000 -0.000028 57.796143
				CHANNELS 6 Xposition Yposition Zposition Xrotation Zrotation Yrotation
				JOINT RightToeBase
				{
					OFFSET 0.000000 20.734900 8.985126
					CHANNELS 6 Xposition Yposition Zposition Xrotation Zrotation Yrotation
					End Site
					{
						OFFSET 0.000000 5.529309 0.000000
					}
				}
			}
		}
	}
}
MOTION
Frames: 7
Frame Time: 0.041667
0.346846 -18.064062 -113.699539 3.147432 0.546032 -1.255786 0.000000 0.000003 -11.335062 11.066284 4.013245 -1.727165 -0.000001 0.000012 -25.649014 10.603916 1.645476 -3.959394 0.000005 0.000020 -28.413597 11.613680 17.572101 -3.233851 -0.000009 2.764679 -21.426056 16.016993 17.760261 27.448621 5.517781 -0.602985 -23.183504 1.952440 17.319512 -0.443124 15.992185 0.000023 -0.000002 65.740694 40.731748 6.555327 41.472084 -0.000033 -0.000004 57.395726 43.904992 119.232317 37.091549 -0.000007 -0.000042 -8.458792 11.053617 31.820110 -5.529051 -0.603007 -23.183537 -1.672664 -7.682385 -2.205722 -15.992181 0.000008 -0.000004 26.076619 -28.667025 16.555120 -41.472099 0.000012 -0.000004 -11.279167 2.432034 -4.044088 -37.091496 0.000010 0.000016 -11.762165 2.992335 -21.526207 13.823268 0.000002 0.000017 -13.774979 13.749271 35.403138 -0.000014 -0.000036 71.945946 44.239009 -10.968229 -36.175530 -0.000003 -0.000017 57.796139 -17.155308 -24.649804 -1.513323 -0.000010 20.734892 8.985126 0.000001 0.000007 -0.000003 -13.823267 0.000000 0.000014 -18.344701 -2.075494 -33.779483 -0.000002 -0.000037 71.945961 39.735059 -1.523100 34.191999 0.000020 -0.000027 57.796162 -24.721788 31.605106 -5.864699 -0.000005 20.734909 8.985126 -0.000002 -0.000001 0.000002 
0.334985 -18.050207 -113.699562 3.151989 0.544600 -1.261233 -0.000000 0.000008 -11.335088 11.079501 4.008970 -1.732180 0.000002 0.000021 -25.648968 10.618901 1.644772 -3.963990 0.000002 0.000026 -28.413626 11.615081 17.570296 -3.225655 -0.000007 2.764676 -21.426090 16.007166 17.760783 27.431802 5.517777 -0.602987 -23.183546 1.951186 17.316807 -0.440268 15.992187 0.000017 -0.000016 65.766314 40.734903 6.562371 41.472107 -0.000022 -0.000012 57.387652 43.894218 119.235692 37.091526 -0.000008 0.000007 -8.462827 11.051209 31.761032 -5.529050 -0.602979 -23.183554 -1.672424 -7.678669 -2.194746 -15.992200 0.000001 -0.000021 26.098189 -28.678438 16.543833 -41.472095 -0.000024 0.000006 -11.313321 2.418207 -4.037473 -37.091488 0.000022 0.000023 -11.794594 2.971111 -21.589400 13.823266 -0.000002 -0.000016 -13.770663 13.749829 35.410183 0.000002 -0.000029 71.945976 44.203171 -10.928106 -36.160524 -0.000018 -0.000026 57.796150 -17.150433 -24.700537 -1.534608 -0.000005 20.734903 8.985126 -0.000000 0.000005 -0.000002 -13.823267 -0.000004 0.000004 -18.347842 -2.069519 -33.771092 -0.000003 -0.000034 71.945999 39.740776 -1.530724 34.194888 0.000021 -0.000025 57.796162 -24.733280 31.609689 -5.873206 -0.000007 20.734892 8.985126 0.000002 0.000002 0.000002 
0.320897 -18.042665 -113.703659 3.165421 0.536472 -1.266749 -0.000000 -0.000001 -11.335099 11.090258 4.009675 -1.722963 -0.000002 0.000009 -25.649002 10.615798 1.643309 -3.944637 0.000001 0.000013 -28.413671 11.617898 17.568689 -3.217163 0.000012 2.764658 -21.426050 15.992164 17.763099 27.388517 5.517780 -0.602990 -23.183554 1.962067 17.305994 -0.446762 15.992198 0.000012 -0.000041 65.816147 40.754274 6.598156 41.472099 0.000008 0.000001 57.324166 43.872720 119.216362 37.091511 0.000001 -0.000025 -8.474344 11.072065 31.725880 -5.529049 -0.602986 -23.183559 -1.656382 -7.687153 -2.205715 -15.992198 -0.000011 0.000022 26.116495 -28.688342 16.542208 -41.472099 0.000016 0.000028 -11.303073 2.436921 -4.021940 -37.091526 0.000007 0.000009 -11.789000 2.987937 -21.655096 13.823270 -0.000002 0.000002 -13.780702 13.756577 35.414080 0.000009 -0.000033 71.945984 44.201842 -10.932883 -36.146802 -0.000012 -0.000028 57.796158 -17.144555 -24.696364 -1.524855 0.000004 20.734909 8.985126 -0.000000 0.000000 -0.000000 -13.823268 -0.000003 -0.000003 -18.359062 -2.062466 -33.757930 -0.000013 -0.000037 71.945961 39.762838 -1.507010 34.189147 0.000026 -0.000023 57.796165 -24.733804 31.594399 -5.855701 -0.000001 20.734890 8.985126 0.000000 -0.000001 0.000002 
0.306771 -18.029919 -113.704010 3.166967 0.531974 -1.265997 0.000001 0.000012 -11.335092 11.093077 4.003265 -1.714081 -0.000000 0.000015 -25.648952 10.624626 1.640525 -3.931094 0.000001 0.000028 -28.413633 11.601703 17.564926 -3.226217 -0.000008 2.764641 -21.426138 15.996170 17.759240 27.375497 5.517777 -0.602976 -23.183535 1.956321 17.304962 -0.460725 15.992194 0.000019 0.000024 65.809405 40.750599 6.590998 41.472126 -0.000014 0.000001 57.359860 43.878153 119.226088 37.091530 -0.000018 0.000029 -8.458289 11.065478 31.725064 -5.529055 -0.602985 -23.183550 -1.662801 -7.682150 -2.216319 -15.992194 -0.000009 -0.000007 26.239903 -28.752542 16.510333 -41.472111 -0.000035 -0.000017 -11.358599 2.490289 -4.051880 -37.091515 0.000015 0.000012 -11.834977 2.958673 -21.602046 13.823270 -0.000001 -0.000015 -13.777171 13.755309 35.411748 0.000008 -0.000036 71.945969 44.192010 -10.935223 -36.132643 -0.000010 -0.000030 57.796154 -17.122398 -24.709254 -1.583401 -0.000012 20.734898 8.985125 -0.000002 -0.000005 -0.000001 -13.823270 -0.000003 -0.000019 -18.359161 -2.059450 -33.750400 0.000016 -0.000029 71.945969 39.795728 -1.474926 34.179435 0.000019 -0.000019 57.796135 -24.715173 31.572785 -5.882030 0.000000 20.734917 8.985126 0.000004 -0.000000 -0.000001 
0.295397 -18.021063 -113.704979 3.176003 0.535561 -1.267695 -0.000000 0.000007 -11.335065 11.093714 3.992847 -1.703405 0.000002 0.000015 -25.648952 10.617521 1.635366 -3.912028 -0.000006 0.000021 -28.413687 11.593125 17.566618 -3.232088 -0.000032 2.764679 -21.426094 16.001071 17.760512 27.358094 5.517773 -0.602988 -23.183584 1.954107 17.306707 -0.467410 15.992198 0.000023 -0.000001 65.901729 40.768399 6.635699 41.472092 -0.000038 0.000006 57.273028 43.848623 119.205789 37.091503 -0.000015 0.000024 -8.483004 11.053116 31.765902 -5.529057 -0.602984 -23.183594 -1.636404 -7.671516 -2.225566 -15.992192 0.000016 0.000011 26.259680 -28.775788 16.489031 -41.472099 0.000003 0.000014 -11.363498 2.500573 -4.040794 -37.091488 0.000001 0.000010 -11.837703 2.954191 -21.557204 13.823269 -0.000002 0.000006 -13.775114 13.755195 35.419131 0.000013 -0.000032 71.945976 44.173343 -10.920048 -36.127285 -0.000005 -0.000030 57.796162 -17.131721 -24.719737 -1.565454 -0.000013 20.734900 8.985126 -0.000001 -0.000001 -0.000004 -13.823271 -0.000004 0.000034 -18.368861 -2.061543 -33.743327 0.000012 -0.000039 71.945969 39.800510 -1.486179 34.181572 0.000015 -0.000032 57.796150 -24.749079 31.565548 -5.854845 -0.000013 20.734896 8.985125 -0.000001 -0.000003 0.000000 
0.283990 -18.006777 -113.704086 3.177659 0.525619 -1.260748 0.000001 0.000007 -11.335117 11.097106 3.991068 -1.690513 -0.000000 0.000017 -25.648972 10.621380 1.634493 -3.903276 -0.000002 0.000020 -28.413664 11.584024 17.564477 -3.241236 -0.000023 2.764680 -21.426073 16.001368 17.758907 27.349309 5.517776 -0.602991 -23.183569 1.951518 17.303758 -0.475288 15.992183 0.000025 0.000007 65.881580 40.768726 6.620546 41.472080 -0.000039 0.000014 57.325880 43.864851 119.220679 37.091522 -0.000005 -0.000017 -8.462410 11.056307 31.807996 -5.529051 -0.602975 -23.183556 -1.637306 -7.663839 -2.234687 -15.992185 0.000010 -0.000005 26.476571 -28.861729 16.415115 -41.472095 0.000007 -0.000011 -11.456948 2.535671 -4.086707 -37.091511 0.000011 0.000019 -11.927220 2.955463 -21.485004 13.823270 -0.000004 -0.000026 -13.786350 13.747488 35.397578 -0.000000 -0.000029 71.945976 44.192403 -10.952610 -36.092584 -0.000010 -0.000030 57.796124 -17.135753 -24.684275 -1.554525 0.000001 20.734911 8.985126 0.000000 0.000001 -0.000001 -13.823272 -0.000004 -0.000030 -18.375915 -2.036563 -33.752818 -0.000018 -0.000039 71.945938 39.791569 -1.530884 34.177232 -0.000002 -0.000026 57.796143 -24.749380 31.603757 -5.917503 -0.000009 20.734888 8.985126 -0.000000 0.000003 0.000000 
0.271058 -17.997004 -113.706810 3.180918 0.528043 -1.263558 0.000000 0.000005 -11.335077 11.084596 3.988826 -1.704202 0.000003 0.000008 -25.648960 10.605446 1.634884 -3.925244 -0.000001 0.000024 -28.413671 11.584838 17.558050 -3.233477 -0.000018 2.764690 -21.426088 15.999988 17.752869 27.326385 5.517778 -0.602976 -23.183580 1.951805 17.290778 -0.468124 15.992202 0.000008 0.000049 65.965380 40.772456 6.667023 41.472118 0.000016 0.000002 57.312452 43.863536 119.252207 37.091518 -0.000004 0.000002 -8.479957 11.111443 31.922119 -5.529055 -0.602976 -23.183575 -1.630470 -7.668394 -2.232674 -15.992190 0.000006 -0.000016 26.454462 -28.857594 16.439277 -41.472103 -0.000004 -0.000004 -11.344285 2.552730 -4.055415 -37.091518 0.000001 0.000008 -11.823571 2.996185 -21.528994 13.823270 0.000002 0.000004 -13.782782 13.744116 35.401649 -0.000005 -0.000022 71.945961 44.187257 -10.963008 -36.081427 -0.000019 -0.000034 57.796154 -17.124100 -24.684456 -1.568874 -0.000001 20.734901 8.985126 0.000001 -0.000001 0.000000 -13.823272 0.000001 0.000009 -18.373098 -2.043174 -33.741664 0.000007 -0.000036 71.945961 39.796756 -1.524403 34.177700 0.000016 -0.000027 57.796116 -24.782667 31.583379 -5.884645 -0.000008 20.734905 8.985126 -0.000001 0.000007 0.000000 
